<?xml version="1.0" standalone="no"?>
<!DOCTYPE svg PUBLIC "-//W3C//DTD SVG 1.1//EN" "http://www.w3.org/Graphics/SVG/1.1/DTD/svg11.dtd">
<svg t="1547607686182" class="icon" style="" viewBox="0 0 1024 1024" version="1.1" xmlns="http://www.w3.org/2000/svg" p-id="1965" xmlns:xlink="http://www.w3.org/1999/xlink" width="32" height="32">
  <defs>
    <style type="text/css"></style>
  </defs>
  <path d="M764.061538 126.030769L401.723077 512l362.338461 385.969231c15.753846 15.753846 23.630769 31.507692 23.63077 55.138461 0 39.384615-31.507692 70.892308-70.892308 70.892308-15.753846 0-31.507692-7.876923-47.261538-23.630769L259.938462 567.138462C244.184615 551.384615 236.307692 527.753846 236.307692 512c0-23.630769 7.876923-39.384615 23.63077-55.138462L677.415385 15.753846c7.876923-7.876923 23.630769-15.753846 39.384615-15.753846 39.384615 0 70.892308 31.507692 70.892308 70.892308 0 23.630769-7.876923 47.261538-23.63077 55.138461z" fill="" p-id="1966"></path>
</svg>