<svg t="1617326605995" class="icon" viewBox="0 0 1024 1024" version="1.1" xmlns="http://www.w3.org/2000/svg" p-id="5571" width="32" height="32">
  <path d="M832 64H192c-17.692444 0-32 14.307556-32 32v529.009778c0-0.597333 0.398222-0.995556 0.995556-0.995556h219.306666l5.205334 24.689778A129.422222 129.422222 0 0 0 512 751.985778a129.223111 129.223111 0 0 0 126.407111-103.281778l5.205333-24.718222h219.392c0.568889 0 0.995556 0.426667 0.995556 1.024V96c0-17.692444-14.307556-32-32-32z m-120.007111 428.999111a8.021333 8.021333 0 0 1-7.992889 7.992889h-384a8.021333 8.021333 0 0 1-7.992889-7.992889v-48.014222c0-4.380444 3.584-7.964444 7.992889-7.964445h384c4.408889 0 7.992889 3.584 7.992889 7.964445v48.014222z m0-160a8.021333 8.021333 0 0 1-7.992889 7.992889h-384a8.021333 8.021333 0 0 1-7.992889-7.992889v-48.014222c0-4.380444 3.584-7.964444 7.992889-7.964445h384c4.408889 0 7.992889 3.584 7.992889 7.964445v48.014222z m151.011555 353.991111h-168.903111A193.137778 193.137778 0 0 1 512 815.985778a193.706667 193.706667 0 0 1-122.993778-44.288 194.048 194.048 0 0 1-59.107555-84.707556H160.995556c-0.568889 0-0.995556-0.398222-0.995556-0.995555v242.005333c0 17.692444 14.307556 32 32 32h640c17.692444 0 32-14.307556 32-32v-242.005333c0 0.597333-0.398222 0.995556-0.995556 0.995555z" p-id="5572"></path>
</svg>