<svg t="1583303720579" class="icon" viewBox="0 0 1024 1024" version="1.1" xmlns="http://www.w3.org/2000/svg" p-id="2274" width="32" height="32">
  <path d="M875.9296 421.4784l-302.2848-305.152c-19.456-19.456-41.5744-30.5152-69.2224-33.1776L110.592 63.6928c-30.5152 0-55.5008 24.9856-55.5008 55.5008L71.68 490.7008v13.9264-13.9264c0-5.5296 0 61.0304 36.0448 97.0752l302.2848 304.9472c74.9568 74.9568 149.7088 74.9568 224.6656 0l260.7104-266.24c74.752-72.0896 55.296-130.2528-19.456-205.0048z m-571.1872-47.3088c-30.5152 0-55.5008-24.9856-55.5008-55.5008 0-30.5152 24.9856-55.5008 55.5008-55.5008 30.5152 0 55.5008 24.9856 55.5008 55.5008-0.2048 30.72-24.9856 55.5008-55.5008 55.5008z m0 0" p-id="2275" fill=""></path>
</svg>