<svg t="1617259858473" class="icon" viewBox="0 0 1024 1024" version="1.1" xmlns="http://www.w3.org/2000/svg" p-id="2186" width="32" height="32">
   <path transform="rotate(90 510,545) " id="svg_1" d="m764.627,586.307c35.552,0 64.373,28.83 64.373,64.395a64.407,64.407 0 0 1 -16.525,43.077l-253.627,281.904c-23.783,26.434 -64.485,28.577 -90.91,4.786a64.384,64.384 0 0 1 -4.786,-4.786l-253.627,-281.904c-23.783,-26.434 -21.64,-67.15 4.785,-90.941a64.36,64.36 0 0 1 43.063,-16.53l507.254,-0.001zm-205.779,-471.99l253.627,281.904a64.407,64.407 0 0 1 16.525,43.077c0,35.564 -28.82,64.395 -64.373,64.395l-507.254,0a64.36,64.36 0 0 1 -43.063,-16.53c-26.425,-23.792 -28.568,-64.508 -4.785,-90.942l253.627,-281.904a64.384,64.384 0 0 1 4.785,-4.786c26.426,-23.791 67.128,-21.648 90.911,4.786z"/>
</svg>