<svg width="26" height="48" viewBox="0 0 25 46" xmlns="http://www.w3.org/2000/svg">
  <g fill="" fill-rule="evenodd">
    <text opacity=".3" font-family="inherit" font-size="11" font-weight="500">
      <tspan x="4" y="25">3:2</tspan>
    </text>
    <path d="M24 0a1 1 0 0 1 1 1v44a1 1 0 0 1-1 1H1a1 1 0 0 1-1-1V1a1 1 0 0 1 1-1h23zM12.532 39.384c-1.189 0-2.152.959-2.152 2.142 0 1.183.963 2.142 2.152 2.142 1.188 0 2.152-.959 2.152-2.142a2.147 2.147 0 0 0-2.152-2.142zM23.873 5H1.127A.127.127 0 0 0 1 5.127v31.746c0 .07.057.127.127.127h22.746c.07 0 .127-.057.127-.127V5.127A.127.127 0 0 0 23.873 5zM15.75 2h-3.5a.25.25 0 1 0 0 .5h3.5a.25.25 0 1 0 0-.5zm-5 0a.25.25 0 1 0 0 .5.25.25 0 0 0 0-.5z"
      fill-rule="nonzero"></path>
  </g>
</svg>