<svg width="23" height="48" viewBox="0 0 24 50" xmlns="http://www.w3.org/2000/svg">
  <g fill="" fill-rule="evenodd">
    <path d="M22.204 0C23.196 0 24 .804 24 1.796v46.408c0 .992-.804 1.796-1.796 1.796H1.796A1.796 1.796 0 0 1 0 48.204V1.796C0 .804.804 0 1.796 0h20.408zm-2.848 1c-.1 0-.18.08-.18.18v.32a.5.5 0 0 1-.5.5H5.094a.5.5 0 0 1-.5-.5v-.32c0-.1-.08-.18-.18-.18H2.198C1.536 1 1 1.536 1 2.198v45.604C1 48.464 1.536 49 2.198 49h19.604c.662 0 1.198-.536 1.198-1.198V2.198C23 1.536 22.464 1 21.802 1h-2.446z"
      fill-rule="nonzero"></path>
    <text opacity=".3" font-family="inherit" font-size="8" font-weight="500">
      <tspan x="1" y="28">19.5:9</tspan>
    </text>
  </g>
</svg>