<?xml version="1.0" standalone="no"?>
<!DOCTYPE svg PUBLIC "-//W3C//DTD SVG 1.1//EN" "http://www.w3.org/Graphics/SVG/1.1/DTD/svg11.dtd">
<svg t="1572313073344" class="icon" viewBox="0 0 1024 1024" version="1.1" xmlns="http://www.w3.org/2000/svg" p-id="4196" width="32" height="32" xmlns:xlink="http://www.w3.org/1999/xlink">
  <defs>
    <style type="text/css"></style>
  </defs>
  <path d="M417.792 480.109714H200.521143A54.162286 54.162286 0 0 1 146.285714 425.910857V208.64a54.162286 54.162286 0 0 1 54.235429-54.235429h217.270857a54.162286 54.162286 0 0 1 54.198857 54.235429v217.270857a54.162286 54.162286 0 0 1-54.198857 54.198857zM200.521143 190.573714a18.066286 18.066286 0 0 0-18.066286 18.066286v217.270857a18.066286 18.066286 0 0 0 18.066286 18.066286h217.270857a18.066286 18.066286 0 0 0 18.066286-18.066286V208.64a18.066286 18.066286 0 0 0-18.066286-18.066286zM899.657143 355.913143l-153.819429 153.6a54.528 54.528 0 0 1-76.8 0l-153.6-153.6a54.528 54.528 0 0 1 0-76.8l153.6-153.6a54.528 54.528 0 0 1 76.8 0l153.6 153.6a54.198857 54.198857 0 0 1 0.402286 76.8z m-358.4-51.529143a17.883429 17.883429 0 0 0 0 25.6l153.6 153.6a17.883429 17.883429 0 0 0 25.6 0l153.6-153.6a17.883429 17.883429 0 0 0 0-25.6l-96.768-96.621714L720.457143 150.930286a17.883429 17.883429 0 0 0-25.6 0z m-123.428572 574.171429H200.521143A54.162286 54.162286 0 0 1 146.285714 824.283429v-217.270858a54.162286 54.162286 0 0 1 54.235429-54.235428h217.270857a54.162286 54.162286 0 0 1 54.235429 54.235428v217.270858a54.162286 54.162286 0 0 1-54.235429 54.235428z m-217.307428-289.609143a18.066286 18.066286 0 0 0-18.066286 18.066285v217.270858a18.066286 18.066286 0 0 0 18.066286 18.066285h217.270857a18.066286 18.066286 0 0 0 18.066286-18.066285v-217.270858a18.066286 18.066286 0 0 0-18.066286-18.066285H200.521143z m615.643428 289.572571h-217.270857a54.162286 54.162286 0 0 1-54.235428-54.235428v-217.270858a54.162286 54.162286 0 0 1 54.235428-54.235428h217.270857a54.162286 54.162286 0 0 1 54.235429 54.235428v217.270858a54.162286 54.162286 0 0 1-54.235429 54.235428z m-217.270857-289.572571a18.066286 18.066286 0 0 0-18.066285 18.066285v217.270858a18.066286 18.066286 0 0 0 18.066285 18.066285h217.270857a18.066286 18.066286 0 0 0 18.066286-18.066285v-217.270858a18.066286 18.066286 0 0 0-18.066286-18.066285h-217.270857z" fill="" p-id="4197"></path>
</svg>