<svg t="1572331214719" class="icon" viewBox="0 0 1210 1024" version="1.1" xmlns="http://www.w3.org/2000/svg" p-id="9174" width="32" height="32">
  <path d="M1210.267775 97.388735c0-56.731302-43.493998-97.388735-97.388735-97.388735C774.382271 0.472761 435.885503 0.472761 97.388735 0.472761c-5.67313 0-11.34626 0-17.019391 0.945522C30.729455 9.927978 0 46.330563 0 96.443213v827.331487c0 15.601108 1.418283 30.729455 8.036934 45.385041 17.964912 36.875346 47.276085 54.840259 88.406279 54.840259h1014.072022c7.091413 0 14.182825 0 21.274239-0.945522 46.803324-7.564174 78.00554-45.857802 78.00554-95.497691 0.472761-276.565097 0-553.602955 0.472761-830.168052zM1108.151431 931.338873H102.116343c-7.091413 0-9.455217-1.418283-9.455216-8.982456V102.116343c0-7.564174 2.363804-8.982456 9.455216-8.982456h1006.035088c7.091413 0 8.982456 1.418283 8.982456 8.509696v821.185595c0 7.091413-2.363804 8.509695-8.982456 8.509695z" p-id="9175" fill=""></path>
  <path d="M140.409972 883.117267c77.060018-108.262235 154.120037-216.051708 231.652817-324.786704 21.746999 29.311173 42.548476 57.676824 63.349953 86.515236 25.056325 34.038781 50.11265 67.604801 74.696215 101.643582 4.254848 6.145891 6.145891 4.727608 9.927977-0.472761 88.406279-121.972299 176.812558-243.471837 264.746076-365.444136 1.891043-2.363804 3.782087-5.200369 6.145891-8.036935 24.110803 43.966759 47.748846 87.460757 71.386888 130.481995 68.077562 124.336103 135.682364 249.144968 203.759927 373.481071 4.254848 8.036934 4.254848 8.036934-5.20037 8.036934h-912.428439c-1.891043 0-4.727608 0.472761-8.036935-1.418282zM325.732225 232.598338c51.058172-0.472761 93.133887 41.602955 93.133888 93.133887 0.472761 51.058172-42.075716 93.133887-93.133888 93.133888-52.003693 0-93.133887-41.602955-93.133887-93.606649 0-51.058172 41.602955-92.188366 93.133887-92.661126z" p-id="9176" fill=""></path>
</svg>