<?xml version="1.0" standalone="no"?><!DOCTYPE svg PUBLIC "-//W3C//DTD SVG 1.1//EN" "http://www.w3.org/Graphics/SVG/1.1/DTD/svg11.dtd"><svg t="1622544964133" class="icon" viewBox="0 0 1024 1024" version="1.1" xmlns="http://www.w3.org/2000/svg" p-id="2562" xmlns:xlink="http://www.w3.org/1999/xlink" width="32" height="32"><defs><style type="text/css">@font-face { font-family: element-icons; src: url("chrome-extension://moombeodfomdpjnpocobemoiaemednkg/fonts/element-icons.woff") format("woff"), url("chrome-extension://moombeodfomdpjnpocobemoiaemednkg/fonts/element-icons.ttf ") format("truetype"); }
</style></defs><path d="M746.715743 359.458815 746.715743 359.458815l65.86408-42.219567c-31.725562-49.38578-75.1557-90.494037-126.421294-119.416763l-38.381146 68.179822C687.898149 288.63784 721.887264 320.80854 746.715743 359.458815z" p-id="2563"></path><path d="M272.494161 663.445224l-65.865103 42.22059c31.724539 49.386804 75.156724 90.494037 126.421294 119.416763l38.381146-68.180845 0 0C331.311755 734.265176 297.321616 702.095499 272.494161 663.445224z" p-id="2564"></path><path d="M784.696776 571.630099l76.472696 16.72901c12.488429-57.354266 10.846022-117.132744-4.953825-173.83414l-75.420737 21.091364c6.756891 24.137747 10.500145 49.536206 10.500145 75.836199C791.296077 532.125363 788.924053 552.223097 784.696776 571.630099z" p-id="2565"></path><path d="M234.512105 451.27394l-76.472696-16.72901c-12.489452 57.354266-10.844999 117.132744 4.953825 173.83414l75.419713-21.090341c-6.756891-24.137747-10.499122-49.53723-10.499122-75.837222C227.912803 490.777653 230.284827 470.679919 234.512105 451.27394z" p-id="2566"></path><path d="M449.424826 786.551006l-16.726963 76.466556c57.354266 12.487406 117.131721 10.846022 173.833117-4.953825l-21.12411-75.537394c-24.150026 6.742565-49.501414 10.616802-75.803453 10.616802C488.929562 793.142122 468.824665 790.790564 449.424826 786.551006z" p-id="2567"></path><path d="M569.783031 236.352009l16.727986-76.465532c-57.354266-12.489452-117.132744-10.844999-173.833117 4.953825l21.123087 75.537394c24.15105-6.742565 49.501414-10.617825 75.803453-10.617825C530.279319 229.759871 550.383192 232.111428 569.783031 236.352009z" p-id="2568"></path><path d="M661.512199 748.429781l42.305525 65.996087c49.38578-31.725562 90.494037-75.1557 119.416763-126.421294l-68.27499-38.434358C732.324988 689.686888 700.158381 723.604372 661.512199 748.429781z" p-id="2569"></path><path d="M357.695658 274.473235l-42.304502-65.996087c-49.386804 31.724539-90.494037 75.156724-119.416763 126.421294l68.273966 38.434358C286.883893 333.215104 319.049476 299.299667 357.695658 274.473235z" p-id="2570"></path><path d="M509.603417 511.451508l0.001023 0 0 0.001023-0.001023 0 0-0.001023Z" p-id="2571"></path><path d="M509.603417 511.451508l-75.80243-271.073812c-27.270087 7.613398-52.845579 19.154245-76.105329 34.095539L509.603417 511.451508 509.603417 511.451508z" p-id="2572"></path><path d="M780.795932 435.615309c-7.630794-27.258831-19.138896-52.896744-34.079166-76.156494L509.608533 511.451508 780.795932 435.615309z" p-id="2573"></path><path d="M509.603417 511.452531l0.002047-0.001023 138.170896-245.448178 0 0c-24.023136-13.553691-50.265824-23.591301-77.993329-29.65132L509.603417 511.452531 509.603417 511.452531z" p-id="2574"></path><path d="M509.60444 511.454578l75.803453 271.071765c27.270087-7.612375 52.844555-19.154245 76.104305-34.095539L509.60444 511.454578 509.60444 511.454578z" p-id="2575"></path><path d="M509.60444 511.453554 509.603417 511.453554 509.60444 511.453554Z" p-id="2576"></path><path d="M371.432521 756.900709c24.023136 13.553691 50.2648 23.591301 77.992305 29.650297l60.177568-275.094382L371.432521 756.900709z" p-id="2577"></path><path d="M509.603417 511.452531 264.249383 373.3328c-13.555737 24.026206-23.692608 50.198286-29.736255 77.94114L509.603417 511.452531 509.603417 511.452531z" p-id="2578"></path><path d="M509.603417 511.452531 238.412948 587.28873c7.630794 27.257807 19.139919 52.895721 34.08019 76.154447l0.001023 0.001023 237.108233-151.990646L509.603417 511.452531z" p-id="2579"></path><path d="M509.605463 511.452531 509.605463 511.452531l245.354034 138.118708c13.556761-24.02723 23.693632-50.199309 29.737278-77.94114L509.605463 511.452531z" p-id="2580"></path><path d="M509.605463 511.452531l0 0 0 0.001023 0 0 0-0.001023Z" p-id="2581"></path><path d="M509.60444 511.452531l0.001023 0 0 0.001023-0.001023 0 0-0.001023Z" p-id="2582"></path><path d="M509.603417 511.451508l0.001023 0 0 0.002047-0.001023 0 0-0.002047Z" p-id="2583"></path><path d="M509.60444 511.451508l0.001023 0 0 0.001023-0.001023 0 0-0.001023Z" p-id="2584"></path><path d="M509.603417 511.453554 509.603417 511.452531 509.603417 511.452531 509.602394 511.454578 509.60444 511.453554Z" p-id="2585"></path><path d="M509.603417 511.451508l0.001023 0 0 0.001023-0.001023 0 0-0.001023Z" p-id="2586"></path><path d="M509.603417 511.452531 509.603417 511.452531 509.603417 511.452531Z" p-id="2587"></path><path d="M509.603417 511.452531 509.603417 511.452531 509.603417 511.452531Z" p-id="2588"></path><path d="M509.602394 511.452531l0.00307 0 0 0.00307-0.00307 0 0-0.00307Z" p-id="2589"></path><path d="M509.603417 511.452531 509.603417 511.452531 509.603417 511.452531Z" p-id="2590"></path><path d="M509.603417 511.452531 509.603417 511.452531 509.603417 511.452531Z" p-id="2591"></path><path d="M509.603417 511.452531 509.603417 511.453554 509.60444 511.453554 509.60444 511.453554 509.60444 511.453554Z" p-id="2592"></path><path d="M509.60444 511.453554 509.60444 511.453554 509.60444 511.453554Z" p-id="2593"></path><path d="M509.60444 511.453554 509.60444 511.453554 509.60444 511.453554Z" p-id="2594"></path><path d="M509.603417 511.453554 509.603417 511.452531 509.603417 511.452531Z" p-id="2595"></path><path d="M509.603417 511.452531 509.603417 511.452531 509.603417 511.452531Z" p-id="2596"></path><path d="M510.201028 65.128323c-246.49809 0-446.324208 199.825095-446.324208 446.324208 0 246.497067 199.826118 446.324208 446.324208 446.324208 246.499114 0 446.324208-199.827141 446.324208-446.324208C956.525236 264.953418 756.699118 65.128323 510.201028 65.128323zM510.201028 928.980903c-230.594889 0-417.529395-186.934506-417.529395-417.529395 0-230.595912 186.934506-417.529395 417.529395-417.529395s417.529395 186.933483 417.529395 417.529395C927.729399 742.046397 740.795916 928.980903 510.201028 928.980903z" p-id="2597"></path><path d="M812.579823 317.239248c-31.724539-49.38578-75.1557-90.494037-126.421294-119.416763-52.175313-29.434379-112.378463-46.308699-176.554088-46.308699-198.788485 0-359.938746 161.149237-359.938746 359.938746 0 71.554686 20.964474 138.170896 56.963363 194.21226 31.723515 49.386804 75.156724 90.494037 126.421294 119.416763 52.175313 29.434379 112.378463 46.309722 176.554088 46.309722 198.788485 0 359.938746-161.151283 359.938746-359.938746C869.543186 439.896822 848.577688 373.279588 812.579823 317.239248zM509.60444 856.993359c-61.609173 0-119.40346-16.19996-169.492252-44.457538-49.213865-27.76639-90.909499-67.228147-121.364115-114.63997-34.56012-53.7993-54.685483-117.751844-54.685483-186.444343 0-190.837396 154.704454-345.540827 345.540827-345.540827 61.609173 0 119.40346 16.198937 169.492252 44.456514 49.214888 27.76639 90.908476 67.229171 121.364115 114.63997 34.559097 53.7993 54.685483 117.751844 54.685483 186.445366C855.146291 702.288904 700.441836 856.993359 509.60444 856.993359z" p-id="2598"></path></svg>