<svg t="1582019067522" class="icon" viewBox="0 0 1220 1024" version="1.1" xmlns="http://www.w3.org/2000/svg" p-id="1131" width="32" height="32">
  <path d="M 1068.23 912.823 L 1100.7 1024 L 982.309 957.147 C 939.154 968.314 895.805 979.48 852.846 979.48 C 647.461 979.48 485.766 834.804 485.766 656.628 C 485.766 478.744 647.461 333.726 852.846 333.726 C 1046.77 333.726 1219.44 478.744 1219.44 656.628 C 1219.44 756.98 1154.88 845.824 1068.23 912.823 Z M 733.818 511.902 C 712.314 511.902 690.664 534.235 690.664 556.422 C 690.664 578.901 712.314 600.942 733.818 600.942 C 766.44 600.942 787.846 578.901 787.846 556.422 C 787.846 534.235 766.44 511.902 733.818 511.902 Z M 971.191 511.902 C 949.882 511.902 928.329 534.235 928.329 556.422 C 928.329 578.901 949.882 600.942 971.191 600.942 C 1003.57 600.942 1025.22 578.901 1025.22 556.422 C 1025.22 534.235 1003.57 511.902 971.191 511.902 Z M 458.606 661.943 C 458.606 694.272 463.482 725.431 471.918 755.176 C 458.606 756.248 445.147 756.98 431.592 756.98 C 377.758 756.98 334.409 745.618 280.43 734.598 L 129.56 812.617 L 172.715 678.766 C 64.6583 600.942 0 500.59 0 378.392 C 0 166.717 194.365 0 431.592 0 C 643.803 0 829.733 133.218 867.084 312.466 C 853.333 310.906 839.485 309.833 825.49 309.833 C 620.495 309.833 458.606 467.578 458.606 661.943 Z M 291.401 189.196 C 259.072 189.196 226.402 211.237 226.402 244.687 C 226.402 278.04 259.072 300.422 291.401 300.422 C 323.73 300.422 345.283 278.04 345.283 244.687 C 345.283 211.237 323.73 189.196 291.401 189.196 Z M 593.432 189.196 C 561.103 189.196 528.628 211.237 528.628 244.687 C 528.628 278.04 561.103 300.422 593.432 300.422 C 625.957 300.422 647.461 278.04 647.461 244.687 C 647.461 211.237 625.957 189.196 593.432 189.196 Z" p-id="1132" fill=""></path>
</svg>